<svg xmlns="http://www.w3.org/2000/svg" viewBox="0 0 200 168"><path d="m30 113 70 37 70-37-70-38Z" fill="#f5f0fa"/><path d="m30 113 70 37 70-37M44 121l70-38M59 129l70-38M74 137l70-38M130 135l-70-38M146 127l-70-38" fill="none" stroke="#cbb1e0" stroke-width=".7" opacity=".45"/><circle cx="51.00" cy="79.00" r="1.4" fill="#8764ae"/><circle cx="51.00" cy="85.14" r="1.4" fill="#8764ae"/><circle cx="51.00" cy="91.29" r="1.4" fill="#8764ae"/><circle cx="51.00" cy="97.43" r="1.4" fill="#8764ae"/><circle cx="51.00" cy="103.57" r="1.4" fill="#8764ae"/><circle cx="51.00" cy="109.71" r="1.4" fill="#8764ae"/><circle cx="51.00" cy="115.86" r="1.4" fill="#8764ae"/><circle cx="51.00" cy="122.00" r="1.4" fill="#8764ae"/><circle cx="57.12" cy="82.38" r="1.4" fill="#8764ae"/><circle cx="57.12" cy="88.52" r="1.4" fill="#8764ae"/><circle cx="57.12" cy="94.66" r="1.4" fill="#8764ae"/><circle cx="57.12" cy="100.80" r="1.4" fill="#8764ae"/><circle cx="57.12" cy="106.95" r="1.4" fill="#8764ae"/><circle cx="57.12" cy="113.09" r="1.4" fill="#8764ae"/><circle cx="57.12" cy="119.23" r="1.4" fill="#8764ae"/><circle cx="57.12" cy="125.38" r="1.4" fill="#8764ae"/><circle cx="63.25" cy="85.75" r="1.4" fill="#8764ae"/><circle cx="63.25" cy="91.89" r="1.4" fill="#8764ae"/><circle cx="63.25" cy="98.04" r="1.4" fill="#8764ae"/><circle cx="63.25" cy="104.18" r="1.4" fill="#8764ae"/><circle cx="63.25" cy="110.32" r="1.4" fill="#8764ae"/><circle cx="63.25" cy="116.46" r="1.4" fill="#8764ae"/><circle cx="63.25" cy="122.61" r="1.4" fill="#8764ae"/><circle cx="63.25" cy="128.75" r="1.4" fill="#8764ae"/><circle cx="69.38" cy="89.12" r="1.4" fill="#8764ae"/><circle cx="69.38" cy="95.27" r="1.4" fill="#8764ae"/><circle cx="69.38" cy="101.41" r="1.4" fill="#8764ae"/><circle cx="69.38" cy="107.55" r="1.4" fill="#8764ae"/><circle cx="69.38" cy="113.70" r="1.4" fill="#8764ae"/><circle cx="69.38" cy="119.84" r="1.4" fill="#8764ae"/><circle cx="69.38" cy="125.98" r="1.4" fill="#8764ae"/><circle cx="69.38" cy="132.12" r="1.4" fill="#8764ae"/><circle cx="75.50" cy="92.50" r="1.4" fill="#8764ae"/><circle cx="75.50" cy="98.64" r="1.4" fill="#8764ae"/><circle cx="75.50" cy="104.79" r="1.4" fill="#8764ae"/><circle cx="75.50" cy="110.93" r="1.4" fill="#8764ae"/><circle cx="75.50" cy="117.07" r="1.4" fill="#8764ae"/><circle cx="75.50" cy="123.21" r="1.4" fill="#8764ae"/><circle cx="75.50" cy="129.36" r="1.4" fill="#8764ae"/><circle cx="75.50" cy="135.50" r="1.4" fill="#8764ae"/><circle cx="81.62" cy="95.88" r="1.4" fill="#8764ae"/><circle cx="81.62" cy="102.02" r="1.4" fill="#8764ae"/><circle cx="81.62" cy="108.16" r="1.4" fill="#8764ae"/><circle cx="81.62" cy="114.30" r="1.4" fill="#8764ae"/><circle cx="81.62" cy="120.45" r="1.4" fill="#8764ae"/><circle cx="81.62" cy="126.59" r="1.4" fill="#8764ae"/><circle cx="81.62" cy="132.73" r="1.4" fill="#8764ae"/><circle cx="81.62" cy="138.88" r="1.4" fill="#8764ae"/><circle cx="87.75" cy="99.25" r="1.4" fill="#8764ae"/><circle cx="87.75" cy="105.39" r="1.4" fill="#8764ae"/><circle cx="87.75" cy="111.54" r="1.4" fill="#8764ae"/><circle cx="87.75" cy="117.68" r="1.4" fill="#8764ae"/><circle cx="87.75" cy="123.82" r="1.4" fill="#8764ae"/><circle cx="87.75" cy="129.96" r="1.4" fill="#8764ae"/><circle cx="87.75" cy="136.11" r="1.4" fill="#8764ae"/><circle cx="87.75" cy="142.25" r="1.4" fill="#8764ae"/><circle cx="93.88" cy="102.62" r="1.4" fill="#8764ae"/><circle cx="93.88" cy="108.77" r="1.4" fill="#8764ae"/><circle cx="93.88" cy="114.91" r="1.4" fill="#8764ae"/><circle cx="93.88" cy="121.05" r="1.4" fill="#8764ae"/><circle cx="93.88" cy="127.20" r="1.4" fill="#8764ae"/><circle cx="93.88" cy="133.34" r="1.4" fill="#8764ae"/><circle cx="93.88" cy="139.48" r="1.4" fill="#8764ae"/><circle cx="93.88" cy="145.62" r="1.4" fill="#8764ae"/><circle cx="100.00" cy="106.00" r="1.4" fill="#8764ae"/><circle cx="100.00" cy="112.14" r="1.4" fill="#8764ae"/><circle cx="100.00" cy="118.29" r="1.4" fill="#8764ae"/><circle cx="100.00" cy="124.43" r="1.4" fill="#8764ae"/><circle cx="100.00" cy="130.57" r="1.4" fill="#8764ae"/><circle cx="100.00" cy="136.71" r="1.4" fill="#8764ae"/><circle cx="100.00" cy="142.86" r="1.4" fill="#8764ae"/><circle cx="100.00" cy="149.00" r="1.4" fill="#8764ae"/><circle cx="100.00" cy="106.00" r="1.4" fill="#cbb1e0"/><circle cx="100.00" cy="112.14" r="1.4" fill="#cbb1e0"/><circle cx="100.00" cy="118.29" r="1.4" fill="#cbb1e0"/><circle cx="100.00" cy="124.43" r="1.4" fill="#cbb1e0"/><circle cx="100.00" cy="130.57" r="1.4" fill="#cbb1e0"/><circle cx="100.00" cy="136.71" r="1.4" fill="#cbb1e0"/><circle cx="100.00" cy="142.86" r="1.4" fill="#cbb1e0"/><circle cx="100.00" cy="149.00" r="1.4" fill="#cbb1e0"/><circle cx="106.12" cy="102.62" r="1.4" fill="#cbb1e0"/><circle cx="106.12" cy="108.77" r="1.4" fill="#cbb1e0"/><circle cx="106.12" cy="114.91" r="1.4" fill="#cbb1e0"/><circle cx="106.12" cy="121.05" r="1.4" fill="#cbb1e0"/><circle cx="106.12" cy="127.20" r="1.4" fill="#cbb1e0"/><circle cx="106.12" cy="133.34" r="1.4" fill="#cbb1e0"/><circle cx="106.12" cy="139.48" r="1.4" fill="#cbb1e0"/><circle cx="106.12" cy="145.62" r="1.4" fill="#cbb1e0"/><circle cx="112.25" cy="99.25" r="1.4" fill="#cbb1e0"/><circle cx="112.25" cy="105.39" r="1.4" fill="#cbb1e0"/><circle cx="112.25" cy="111.54" r="1.4" fill="#cbb1e0"/><circle cx="112.25" cy="117.68" r="1.4" fill="#cbb1e0"/><circle cx="112.25" cy="123.82" r="1.4" fill="#cbb1e0"/><circle cx="112.25" cy="129.96" r="1.4" fill="#cbb1e0"/><circle cx="112.25" cy="136.11" r="1.4" fill="#cbb1e0"/><circle cx="112.25" cy="142.25" r="1.4" fill="#cbb1e0"/><circle cx="118.38" cy="95.88" r="1.4" fill="#cbb1e0"/><circle cx="118.38" cy="102.02" r="1.4" fill="#cbb1e0"/><circle cx="118.38" cy="108.16" r="1.4" fill="#cbb1e0"/><circle cx="118.38" cy="114.30" r="1.4" fill="#cbb1e0"/><circle cx="118.38" cy="120.45" r="1.4" fill="#cbb1e0"/><circle cx="118.38" cy="126.59" r="1.4" fill="#cbb1e0"/><circle cx="118.38" cy="132.73" r="1.4" fill="#cbb1e0"/><circle cx="118.38" cy="138.88" r="1.4" fill="#cbb1e0"/><circle cx="124.50" cy="92.50" r="1.4" fill="#cbb1e0"/><circle cx="124.50" cy="98.64" r="1.4" fill="#cbb1e0"/><circle cx="124.50" cy="104.79" r="1.4" fill="#cbb1e0"/><circle cx="124.50" cy="110.93" r="1.4" fill="#cbb1e0"/><circle cx="124.50" cy="117.07" r="1.4" fill="#cbb1e0"/><circle cx="124.50" cy="123.21" r="1.4" fill="#cbb1e0"/><circle cx="124.50" cy="129.36" r="1.4" fill="#cbb1e0"/><circle cx="124.50" cy="135.50" r="1.4" fill="#cbb1e0"/><circle cx="130.62" cy="89.12" r="1.4" fill="#cbb1e0"/><circle cx="130.62" cy="95.27" r="1.4" fill="#cbb1e0"/><circle cx="130.62" cy="101.41" r="1.4" fill="#cbb1e0"/><circle cx="130.62" cy="107.55" r="1.4" fill="#cbb1e0"/><circle cx="130.62" cy="113.70" r="1.4" fill="#cbb1e0"/><circle cx="130.62" cy="119.84" r="1.4" fill="#cbb1e0"/><circle cx="130.62" cy="125.98" r="1.4" fill="#cbb1e0"/><circle cx="130.62" cy="132.12" r="1.4" fill="#cbb1e0"/><circle cx="136.75" cy="85.75" r="1.4" fill="#cbb1e0"/><circle cx="136.75" cy="91.89" r="1.4" fill="#cbb1e0"/><circle cx="136.75" cy="98.04" r="1.4" fill="#cbb1e0"/><circle cx="136.75" cy="104.18" r="1.4" fill="#cbb1e0"/><circle cx="136.75" cy="110.32" r="1.4" fill="#cbb1e0"/><circle cx="136.75" cy="116.46" r="1.4" fill="#cbb1e0"/><circle cx="136.75" cy="122.61" r="1.4" fill="#cbb1e0"/><circle cx="136.75" cy="128.75" r="1.4" fill="#cbb1e0"/><circle cx="142.88" cy="82.38" r="1.4" fill="#cbb1e0"/><circle cx="142.88" cy="88.52" r="1.4" fill="#cbb1e0"/><circle cx="142.88" cy="94.66" r="1.4" fill="#cbb1e0"/><circle cx="142.88" cy="100.80" r="1.4" fill="#cbb1e0"/><circle cx="142.88" cy="106.95" r="1.4" fill="#cbb1e0"/><circle cx="142.88" cy="113.09" r="1.4" fill="#cbb1e0"/><circle cx="142.88" cy="119.23" r="1.4" fill="#cbb1e0"/><circle cx="142.88" cy="125.38" r="1.4" fill="#cbb1e0"/><circle cx="149.00" cy="79.00" r="1.4" fill="#cbb1e0"/><circle cx="149.00" cy="85.14" r="1.4" fill="#cbb1e0"/><circle cx="149.00" cy="91.29" r="1.4" fill="#cbb1e0"/><circle cx="149.00" cy="97.43" r="1.4" fill="#cbb1e0"/><circle cx="149.00" cy="103.57" r="1.4" fill="#cbb1e0"/><circle cx="149.00" cy="109.71" r="1.4" fill="#cbb1e0"/><circle cx="149.00" cy="115.86" r="1.4" fill="#cbb1e0"/><circle cx="149.00" cy="122.00" r="1.4" fill="#cbb1e0"/><circle cx="51.00" cy="79.00" r="1.4" fill="#cbb1e0"/><circle cx="54.43" cy="76.29" r="1.4" fill="#cbb1e0"/><circle cx="57.86" cy="73.57" r="1.4" fill="#cbb1e0"/><circle cx="61.29" cy="70.86" r="1.4" fill="#cbb1e0"/><circle cx="64.71" cy="68.14" r="1.4" fill="#cbb1e0"/><circle cx="68.14" cy="65.43" r="1.4" fill="#cbb1e0"/><circle cx="71.57" cy="62.71" r="1.4" fill="#cbb1e0"/><circle cx="75.00" cy="60.00" r="1.4" fill="#cbb1e0"/><circle cx="57.12" cy="75.62" r="1.4" fill="#cbb1e0"/><circle cx="60.55" cy="72.91" r="1.4" fill="#cbb1e0"/><circle cx="63.98" cy="70.20" r="1.4" fill="#cbb1e0"/><circle cx="67.41" cy="67.48" r="1.4" fill="#cbb1e0"/><circle cx="70.84" cy="64.77" r="1.4" fill="#cbb1e0"/><circle cx="74.27" cy="62.05" r="1.4" fill="#cbb1e0"/><circle cx="77.70" cy="59.34" r="1.4" fill="#cbb1e0"/><circle cx="81.12" cy="56.62" r="1.4" fill="#cbb1e0"/><circle cx="63.25" cy="72.25" r="1.4" fill="#cbb1e0"/><circle cx="66.68" cy="69.54" r="1.4" fill="#cbb1e0"/><circle cx="70.11" cy="66.82" r="1.4" fill="#cbb1e0"/><circle cx="73.54" cy="64.11" r="1.4" fill="#cbb1e0"/><circle cx="76.96" cy="61.39" r="1.4" fill="#cbb1e0"/><circle cx="80.39" cy="58.68" r="1.4" fill="#cbb1e0"/><circle cx="83.82" cy="55.96" r="1.4" fill="#cbb1e0"/><circle cx="87.25" cy="53.25" r="1.4" fill="#cbb1e0"/><circle cx="69.38" cy="68.88" r="1.4" fill="#cbb1e0"/><circle cx="72.80" cy="66.16" r="1.4" fill="#cbb1e0"/><circle cx="76.23" cy="63.45" r="1.4" fill="#cbb1e0"/><circle cx="79.66" cy="60.73" r="1.4" fill="#cbb1e0"/><circle cx="83.09" cy="58.02" r="1.4" fill="#cbb1e0"/><circle cx="86.52" cy="55.30" r="1.4" fill="#cbb1e0"/><circle cx="89.95" cy="52.59" r="1.4" fill="#cbb1e0"/><circle cx="93.38" cy="49.88" r="1.4" fill="#cbb1e0"/><circle cx="75.50" cy="65.50" r="1.4" fill="#cbb1e0"/><circle cx="78.93" cy="62.79" r="1.4" fill="#cbb1e0"/><circle cx="82.36" cy="60.07" r="1.4" fill="#cbb1e0"/><circle cx="85.79" cy="57.36" r="1.4" fill="#cbb1e0"/><circle cx="89.21" cy="54.64" r="1.4" fill="#cbb1e0"/><circle cx="92.64" cy="51.93" r="1.4" fill="#cbb1e0"/><circle cx="96.07" cy="49.21" r="1.4" fill="#cbb1e0"/><circle cx="99.50" cy="46.50" r="1.4" fill="#cbb1e0"/><circle cx="81.62" cy="62.12" r="1.4" fill="#cbb1e0"/><circle cx="85.05" cy="59.41" r="1.4" fill="#cbb1e0"/><circle cx="88.48" cy="56.70" r="1.4" fill="#cbb1e0"/><circle cx="91.91" cy="53.98" r="1.4" fill="#cbb1e0"/><circle cx="95.34" cy="51.27" r="1.4" fill="#cbb1e0"/><circle cx="98.77" cy="48.55" r="1.4" fill="#cbb1e0"/><circle cx="102.20" cy="45.84" r="1.4" fill="#cbb1e0"/><circle cx="105.62" cy="43.12" r="1.4" fill="#cbb1e0"/><circle cx="87.75" cy="58.75" r="1.4" fill="#cbb1e0"/><circle cx="91.18" cy="56.04" r="1.4" fill="#cbb1e0"/><circle cx="94.61" cy="53.32" r="1.4" fill="#cbb1e0"/><circle cx="98.04" cy="50.61" r="1.4" fill="#cbb1e0"/><circle cx="101.46" cy="47.89" r="1.4" fill="#cbb1e0"/><circle cx="104.89" cy="45.18" r="1.4" fill="#cbb1e0"/><circle cx="108.32" cy="42.46" r="1.4" fill="#cbb1e0"/><circle cx="111.75" cy="39.75" r="1.4" fill="#cbb1e0"/><circle cx="93.88" cy="55.38" r="1.4" fill="#cbb1e0"/><circle cx="97.30" cy="52.66" r="1.4" fill="#cbb1e0"/><circle cx="100.73" cy="49.95" r="1.4" fill="#cbb1e0"/><circle cx="104.16" cy="47.23" r="1.4" fill="#cbb1e0"/><circle cx="107.59" cy="44.52" r="1.4" fill="#cbb1e0"/><circle cx="111.02" cy="41.80" r="1.4" fill="#cbb1e0"/><circle cx="114.45" cy="39.09" r="1.4" fill="#cbb1e0"/><circle cx="117.88" cy="36.38" r="1.4" fill="#cbb1e0"/><circle cx="100.00" cy="52.00" r="1.4" fill="#cbb1e0"/><circle cx="103.43" cy="49.29" r="1.4" fill="#cbb1e0"/><circle cx="106.86" cy="46.57" r="1.4" fill="#cbb1e0"/><circle cx="110.29" cy="43.86" r="1.4" fill="#cbb1e0"/><circle cx="113.71" cy="41.14" r="1.4" fill="#cbb1e0"/><circle cx="117.14" cy="38.43" r="1.4" fill="#cbb1e0"/><circle cx="120.57" cy="35.71" r="1.4" fill="#cbb1e0"/><circle cx="124.00" cy="33.00" r="1.4" fill="#cbb1e0"/><circle cx="75.00" cy="60.00" r="1.4" fill="#8764ae"/><circle cx="78.57" cy="66.57" r="1.4" fill="#8764ae"/><circle cx="82.14" cy="73.14" r="1.4" fill="#8764ae"/><circle cx="85.71" cy="79.71" r="1.4" fill="#8764ae"/><circle cx="89.29" cy="86.29" r="1.4" fill="#8764ae"/><circle cx="92.86" cy="92.86" r="1.4" fill="#8764ae"/><circle cx="96.43" cy="99.43" r="1.4" fill="#8764ae"/><circle cx="100.00" cy="106.00" r="1.4" fill="#8764ae"/><circle cx="81.12" cy="56.62" r="1.4" fill="#8764ae"/><circle cx="84.70" cy="63.20" r="1.4" fill="#8764ae"/><circle cx="88.27" cy="69.77" r="1.4" fill="#8764ae"/><circle cx="91.84" cy="76.34" r="1.4" fill="#8764ae"/><circle cx="95.41" cy="82.91" r="1.4" fill="#8764ae"/><circle cx="98.98" cy="89.48" r="1.4" fill="#8764ae"/><circle cx="102.55" cy="96.05" r="1.4" fill="#8764ae"/><circle cx="106.12" cy="102.62" r="1.4" fill="#8764ae"/><circle cx="87.25" cy="53.25" r="1.4" fill="#8764ae"/><circle cx="90.82" cy="59.82" r="1.4" fill="#8764ae"/><circle cx="94.39" cy="66.39" r="1.4" fill="#8764ae"/><circle cx="97.96" cy="72.96" r="1.4" fill="#8764ae"/><circle cx="101.54" cy="79.54" r="1.4" fill="#8764ae"/><circle cx="105.11" cy="86.11" r="1.4" fill="#8764ae"/><circle cx="108.68" cy="92.68" r="1.4" fill="#8764ae"/><circle cx="112.25" cy="99.25" r="1.4" fill="#8764ae"/><circle cx="93.38" cy="49.88" r="1.4" fill="#8764ae"/><circle cx="96.95" cy="56.45" r="1.4" fill="#8764ae"/><circle cx="100.52" cy="63.02" r="1.4" fill="#8764ae"/><circle cx="104.09" cy="69.59" r="1.4" fill="#8764ae"/><circle cx="107.66" cy="76.16" r="1.4" fill="#8764ae"/><circle cx="111.23" cy="82.73" r="1.4" fill="#8764ae"/><circle cx="114.80" cy="89.30" r="1.4" fill="#8764ae"/><circle cx="118.38" cy="95.88" r="1.4" fill="#8764ae"/><circle cx="99.50" cy="46.50" r="1.4" fill="#8764ae"/><circle cx="103.07" cy="53.07" r="1.4" fill="#8764ae"/><circle cx="106.64" cy="59.64" r="1.4" fill="#8764ae"/><circle cx="110.21" cy="66.21" r="1.4" fill="#8764ae"/><circle cx="113.79" cy="72.79" r="1.4" fill="#8764ae"/><circle cx="117.36" cy="79.36" r="1.4" fill="#8764ae"/><circle cx="120.93" cy="85.93" r="1.4" fill="#8764ae"/><circle cx="124.50" cy="92.50" r="1.4" fill="#8764ae"/><circle cx="105.62" cy="43.12" r="1.4" fill="#8764ae"/><circle cx="109.20" cy="49.70" r="1.4" fill="#8764ae"/><circle cx="112.77" cy="56.27" r="1.4" fill="#8764ae"/><circle cx="116.34" cy="62.84" r="1.4" fill="#8764ae"/><circle cx="119.91" cy="69.41" r="1.4" fill="#8764ae"/><circle cx="123.48" cy="75.98" r="1.4" fill="#8764ae"/><circle cx="127.05" cy="82.55" r="1.4" fill="#8764ae"/><circle cx="130.62" cy="89.12" r="1.4" fill="#8764ae"/><circle cx="111.75" cy="39.75" r="1.4" fill="#8764ae"/><circle cx="115.32" cy="46.32" r="1.4" fill="#8764ae"/><circle cx="118.89" cy="52.89" r="1.4" fill="#8764ae"/><circle cx="122.46" cy="59.46" r="1.4" fill="#8764ae"/><circle cx="126.04" cy="66.04" r="1.4" fill="#8764ae"/><circle cx="129.61" cy="72.61" r="1.4" fill="#8764ae"/><circle cx="133.18" cy="79.18" r="1.4" fill="#8764ae"/><circle cx="136.75" cy="85.75" r="1.4" fill="#8764ae"/><circle cx="117.88" cy="36.38" r="1.4" fill="#8764ae"/><circle cx="121.45" cy="42.95" r="1.4" fill="#8764ae"/><circle cx="125.02" cy="49.52" r="1.4" fill="#8764ae"/><circle cx="128.59" cy="56.09" r="1.4" fill="#8764ae"/><circle cx="132.16" cy="62.66" r="1.4" fill="#8764ae"/><circle cx="135.73" cy="69.23" r="1.4" fill="#8764ae"/><circle cx="139.30" cy="75.80" r="1.4" fill="#8764ae"/><circle cx="142.88" cy="82.38" r="1.4" fill="#8764ae"/><circle cx="124.00" cy="33.00" r="1.4" fill="#8764ae"/><circle cx="127.57" cy="39.57" r="1.4" fill="#8764ae"/><circle cx="131.14" cy="46.14" r="1.4" fill="#8764ae"/><circle cx="134.71" cy="52.71" r="1.4" fill="#8764ae"/><circle cx="138.29" cy="59.29" r="1.4" fill="#8764ae"/><circle cx="141.86" cy="65.86" r="1.4" fill="#8764ae"/><circle cx="145.43" cy="72.43" r="1.4" fill="#8764ae"/><circle cx="149.00" cy="79.00" r="1.4" fill="#8764ae"/></svg>
